<svg width="19.000000" height="21.000000" viewBox="0 0 19 21" stroke="#111111" fill="none" xmlns="http://www.w3.org/2000/svg" xmlns:xlink="http://www.w3.org/1999/xlink">
    <desc>
        Created with Pixso.
    </desc>
    <defs/>
    <path id="Vector" d="M12.17 17.45C12.17 16.27 13.06 15.32 14.17 15.32C15.27 15.32 16.17 16.27 16.17 17.45C16.17 18.62 15.27 19.58 14.17 19.58C13.06 19.58 12.17 18.62 12.17 17.45ZM3.17 17.45C3.17 16.27 4.06 15.32 5.17 15.32C6.27 15.32 7.17 16.27 7.17 17.45C7.17 18.62 6.27 19.58 5.17 19.58C4.06 19.58 3.17 18.62 3.17 17.45ZM0.17 0.41L0.87 0.41C1.33 0.41 1.56 0.41 1.75 0.5C1.92 0.58 2.07 0.7 2.17 0.86C2.29 1.04 2.34 1.28 2.44 1.76L4.9 13.99C4.99 14.46 5.04 14.69 5.16 14.87C5.26 15.03 5.41 15.15 5.58 15.23C5.77 15.32 6 15.32 6.46 15.32L14.17 15.32M3.17 3.61L16.04 3.61C16.76 3.61 17.12 3.61 17.36 3.77C17.58 3.91 17.73 4.13 17.8 4.38C17.88 4.68 17.78 5.05 17.58 5.78L16.19 10.89C16.07 11.33 16.01 11.55 15.89 11.72C15.78 11.86 15.64 11.98 15.48 12.05C15.3 12.12 15.09 12.12 14.66 12.12L4.9 12.12" stroke-opacity="1.000000" stroke-width="1.500000" stroke-linejoin="round"/>
</svg>
