<svg width="34.000000" height="34.000000" viewBox="0 0 34 34" fill="none" xmlns="http://www.w3.org/2000/svg" xmlns:xlink="http://www.w3.org/1999/xlink">
    <desc>
        Created with Pixso.
    </desc>
    <defs/>
    <path id="Vector" d="M16.44 -0.47C19.59 -0.44 22.44 0.34 24.99 1.85C27.51 3.34 29.6 5.44 31.07 7.97C32.57 10.53 33.34 13.39 33.38 16.57C33.29 20.91 31.92 24.62 29.27 27.7C26.62 30.77 23.22 32.67 19.71 33.4L19.71 21.23L23.03 21.23L23.78 16.44L18.75 16.44L18.75 13.31C18.73 12.66 18.93 12.02 19.33 11.51C19.74 11 20.44 10.73 21.46 10.7L24.5 10.7L24.5 6.51C24.45 6.49 24.04 6.44 23.26 6.34C22.37 6.24 21.47 6.18 20.58 6.18C18.55 6.18 16.95 6.76 15.77 7.89C14.6 9.02 13.99 10.66 13.97 12.81L13.97 16.44L10.14 16.44L10.14 21.23L13.97 21.23L13.97 33.4C9.65 32.67 6.26 30.77 3.61 27.7C0.96 24.62 -0.41 20.91 -0.5 16.57C-0.46 13.39 0.31 10.53 1.81 7.97C3.28 5.44 5.37 3.34 7.89 1.85C10.43 0.34 13.28 -0.44 16.44 -0.47Z" fill="#EF4934" fill-opacity="1.000000" fill-rule="evenodd"/>
</svg>
