<svg width="35.000000" height="35.000000" viewBox="0 0 35 35" fill="none" xmlns="http://www.w3.org/2000/svg" xmlns:xlink="http://www.w3.org/1999/xlink">
    <desc>
        Created with Pixso.
    </desc>
    <defs/>
    <path id="Subtract" d="M17.5 35C27.16 35 35 27.16 35 17.5C35 7.83 27.16 0 17.5 0C7.83 0 0 7.83 0 17.5C0 27.16 7.83 35 17.5 35ZM14 17.5C14 15.58 15.56 14 17.49 14C19.41 14 20.99 15.58 20.99 17.5C20.99 19.42 19.41 20.99 17.49 20.99C15.57 20.99 14 19.42 14 17.5ZM27.92 13.16C27.99 14.62 27.99 16.04 27.99 17.5C27.99 17.68 27.99 17.86 27.99 18.04C28 19.31 28 20.57 27.92 21.83C27.84 23.51 27.45 25 26.22 26.23C25.01 27.46 23.51 27.85 21.83 27.92C20.37 28 18.95 28 17.49 28C16.04 28 14.61 28 13.16 27.92C11.48 27.85 9.99 27.46 8.77 26.23C7.54 25.01 7.14 23.51 7.07 21.83C7 20.37 7 18.95 7 17.5C7 16.04 7 14.62 7.07 13.16C7.14 11.48 7.54 10 8.77 8.77C9.98 7.54 11.48 7.15 13.16 7.07C14.61 7 16.04 7 17.49 7C18.95 7 20.37 7 21.83 7.07C23.51 7.15 24.99 7.54 26.22 8.77C27.45 9.98 27.84 11.48 27.92 13.16ZM12.11 17.5C12.11 20.48 14.51 22.88 17.49 22.88C20.48 22.88 22.88 20.48 22.88 17.5C22.88 14.51 20.48 12.11 17.49 12.11C14.51 12.11 12.11 14.51 12.11 17.5ZM21.84 11.89C21.84 12.59 22.41 13.15 23.1 13.15L23.12 13.13C23.28 13.13 23.45 13.1 23.6 13.04C23.75 12.98 23.89 12.89 24 12.77C24.12 12.66 24.21 12.52 24.28 12.36C24.34 12.21 24.37 12.05 24.36 11.89C24.36 11.18 23.81 10.63 23.1 10.63C22.4 10.63 21.84 11.18 21.84 11.89Z" fill="#EF4934" fill-opacity="1.000000" fill-rule="evenodd"/>
</svg>
