<svg width="35.000000" height="35.000000" viewBox="0 0 35 35" fill="none" xmlns="http://www.w3.org/2000/svg" xmlns:xlink="http://www.w3.org/1999/xlink">
    <desc>
        Created with Pixso.
    </desc>
    <defs/>
    <path id="Vector" d="M17.5 0C7.83 0 0 7.83 0 17.5C0 27.16 7.83 35 17.5 35C27.16 35 35 27.16 35 17.5C35 7.83 27.16 0 17.5 0ZM12.41 26.45L8.15 26.45L8.15 13.63L12.41 13.63L12.41 26.45ZM10.28 11.88L10.25 11.88C8.82 11.88 7.9 10.89 7.9 9.66C7.9 8.4 8.85 7.45 10.31 7.45C11.77 7.45 12.66 8.4 12.69 9.66C12.69 10.89 11.77 11.88 10.28 11.88ZM27.78 26.45L23.52 26.45L23.52 19.59C23.52 17.87 22.9 16.69 21.36 16.69C20.18 16.69 19.48 17.48 19.17 18.25C19.06 18.52 19.03 18.91 19.03 19.29L19.03 26.45L14.77 26.45C14.77 26.45 14.82 14.83 14.77 13.63L19.03 13.63L19.03 15.44C19.6 14.57 20.61 13.33 22.87 13.33C25.68 13.33 27.78 15.16 27.78 19.1L27.78 26.45Z" fill="#EF4934" fill-opacity="1.000000" fill-rule="nonzero"/>
</svg>
