<svg width="17.000000" height="17.000000" viewBox="0 0 17 17" fill="none" xmlns="http://www.w3.org/2000/svg" xmlns:xlink="http://www.w3.org/1999/xlink">
    <desc>
        Created with Pixso.
    </desc>
    <defs/>
    <path id="Vector" d="M8 11L11 8L8 5M11 8L0 8M5 3.24L5 3.2C5 2.08 5 1.51 5.21 1.09C5.4 0.71 5.71 0.4 6.09 0.21C6.51 0 7.08 0 8.2 0L12.8 0C13.92 0 14.47 0 14.9 0.21C15.28 0.4 15.59 0.71 15.78 1.09C16 1.51 16 2.07 16 3.19L16 12.8C16 13.92 16 14.48 15.78 14.9C15.59 15.28 15.28 15.59 14.9 15.78C14.48 16 13.92 16 12.8 16L8.19 16C7.07 16 6.51 16 6.09 15.78C5.71 15.59 5.4 15.28 5.21 14.9C5 14.47 5 13.92 5 12.8L5 12.75" stroke="#FFFFFF" stroke-opacity="1.000000" stroke-width="1.500000" stroke-linejoin="round"/>
</svg>
