<svg width="19.000000" height="20.000000" viewBox="0 0 19 20" fill="none" xmlns="http://www.w3.org/2000/svg" xmlns:xlink="http://www.w3.org/1999/xlink">
    <desc>
        Created with Pixso.
    </desc>
    <defs/>
    <path id="Vector" d="M12.17 16.95C12.17 15.77 13.06 14.82 14.17 14.82C15.27 14.82 16.17 15.77 16.17 16.95C16.17 18.12 15.27 19.08 14.17 19.08C13.06 19.08 12.17 18.12 12.17 16.95ZM3.17 16.95C3.17 15.77 4.06 14.82 5.17 14.82C6.27 14.82 7.17 15.77 7.17 16.95C7.17 18.12 6.27 19.08 5.17 19.08C4.06 19.08 3.17 18.12 3.17 16.95ZM0.17 -0.09L0.87 -0.09C1.33 -0.09 1.56 -0.09 1.75 0C1.92 0.08 2.07 0.2 2.17 0.36C2.29 0.54 2.34 0.78 2.44 1.26L4.9 13.49C4.99 13.96 5.04 14.19 5.16 14.37C5.27 14.53 5.41 14.65 5.58 14.73C5.77 14.82 6 14.82 6.46 14.82L14.17 14.82M3.17 3.11L16.04 3.11C16.76 3.11 17.12 3.11 17.36 3.27C17.58 3.41 17.73 3.63 17.8 3.88C17.88 4.18 17.78 4.55 17.58 5.28L16.19 10.39C16.07 10.83 16.01 11.05 15.89 11.22C15.78 11.36 15.64 11.48 15.48 11.55C15.3 11.62 15.09 11.62 14.66 11.62L4.9 11.62" stroke="#111111" stroke-opacity="1.000000" stroke-width="1.500000" stroke-linejoin="round"/>
</svg>
