<svg width="20.000000" height="20.000000" viewBox="0 0 20 20" fill="none" xmlns="http://www.w3.org/2000/svg" xmlns:xlink="http://www.w3.org/1999/xlink">
    <desc>
        Created with Pixso.
    </desc>
    <defs>
        <clipPath id="clip11_4038">
            <rect id="Environment / Sun" width="20.000000" height="20.000000" fill="white" fill-opacity="0"/>
        </clipPath>
    </defs>
    <g clip-path="url(#clip11_4038)">
        <path id="Vector" d="M5.83 10C5.83 7.69 7.69 5.83 10 5.83C12.3 5.83 14.16 7.69 14.16 10C14.16 12.3 12.3 14.16 10 14.16C7.69 14.16 5.83 12.3 5.83 10ZM10 3.33L10 1.66M10 16.66L10 18.33M5.34 5.34L4.16 4.16M14.77 14.77L15.95 15.95M3.33 10L1.66 10M16.66 10L18.33 10M14.77 5.34L15.95 4.16M5.34 14.77L4.16 15.95" stroke="#FFFFFF" stroke-opacity="1.000000" stroke-width="1.500000" stroke-linejoin="round"/>
    </g>
</svg>
