<svg width="19.000000" height="19.000000" viewBox="0 0 19 19" fill="none" xmlns="http://www.w3.org/2000/svg" xmlns:xlink="http://www.w3.org/1999/xlink">
    <desc>
        Created with Pixso.
    </desc>
    <defs/>
    <path id="Vector" d="M4.83 9C4.83 6.69 6.69 4.83 9 4.83C11.3 4.83 13.16 6.69 13.16 9C13.16 11.3 11.3 13.16 9 13.16C6.69 13.16 4.83 11.3 4.83 9ZM9 2.33L9 0.66M9 15.66L9 17.33M4.34 4.34L3.16 3.16M13.77 13.77L14.95 14.95M2.33 9L0.66 9M15.66 9L17.33 9M13.77 4.34L14.95 3.16M4.34 13.77L3.16 14.95" stroke="#FFFFFF" stroke-opacity="1.000000" stroke-width="1.500000" stroke-linejoin="round"/>
</svg>
