<svg width="80" height="34" viewBox="0 0 80 34" fill="none" xmlns="http://www.w3.org/2000/svg">
<g clip-path="url(#clip0_1576_1479)">
<path d="M15.0001 10.3334V8.66675M15.0001 23.6667V25.3334M10.3453 12.3453L9.16675 11.1667M19.7734 21.7734L20.952 22.952M8.33341 17.0001H6.66675M21.6667 17.0001H23.3334M19.7738 12.3453L20.9524 11.1667M10.3457 21.7734L9.16716 22.952M15.0001 21.1667C12.6989 21.1667 10.8334 19.3013 10.8334 17.0001C10.8334 14.6989 12.6989 12.8334 15.0001 12.8334C17.3013 12.8334 19.1667 14.6989 19.1667 17.0001C19.1667 19.3013 17.3013 21.1667 15.0001 21.1667Z" stroke="white" stroke-width="1.5" stroke-linecap="round" stroke-linejoin="round"/>
</g>
<path d="M40 7V27" stroke="#656565"/>
<path d="M62.5 12.0001C62.5 16.1422 65.8579 19.5001 70 19.5001C70.7577 19.5001 71.4892 19.388 72.1787 19.179C71.2453 22.2586 68.3844 24.5 65 24.5C60.8579 24.5 57.5 21.1423 57.5 17.0002C57.5 13.6158 59.7417 10.7549 62.8213 9.82153C62.6124 10.511 62.5 11.2424 62.5 12.0001Z" stroke="#656565" stroke-width="1.5" stroke-linecap="round" stroke-linejoin="round"/>
<defs>
<clipPath id="clip0_1576_1479">
<rect width="20" height="20" fill="white" transform="translate(5 7)"/>
</clipPath>
</defs>
</svg>
