<svg width="24" height="24" viewBox="0 0 24 24" fill="none" xmlns="http://www.w3.org/2000/svg">
<path d="M17.1704 17.3227C16.0658 17.3227 15.1704 18.2759 15.1704 19.4517C15.1704 20.6275 16.0658 21.5807 17.1704 21.5807C18.275 21.5807 19.1704 20.6275 19.1704 19.4517C19.1704 18.2759 18.275 17.3227 17.1704 17.3227ZM17.1704 17.3227H9.46436C9.00329 17.3227 8.77234 17.3227 8.58252 17.2353C8.41507 17.1583 8.26979 17.0343 8.16395 16.8761C8.04531 16.6989 7.9976 16.4618 7.90315 15.9926L5.44189 3.76567C5.34525 3.28556 5.29628 3.04577 5.17627 2.86645C5.07043 2.70829 4.92518 2.58381 4.75773 2.50678C4.56787 2.41943 4.3382 2.41943 3.87694 2.41943H3.17041M6.17041 5.61298H19.0436C19.7654 5.61298 20.1259 5.61298 20.3682 5.77304C20.5804 5.91324 20.7357 6.13313 20.8035 6.38902C20.8808 6.68115 20.7814 7.05004 20.5814 7.78828L19.1968 12.898C19.0772 13.3393 19.0173 13.5596 18.896 13.7234C18.7889 13.868 18.6476 13.9811 18.4875 14.0506C18.3065 14.1291 18.0915 14.1291 17.6625 14.1291H7.90088M8.17041 21.5807C7.06584 21.5807 6.17041 20.6275 6.17041 19.4517C6.17041 18.2759 7.06584 17.3227 8.17041 17.3227C9.27498 17.3227 10.1704 18.2759 10.1704 19.4517C10.1704 20.6275 9.27498 21.5807 8.17041 21.5807Z" stroke="white" stroke-width="1.5" stroke-linecap="round" stroke-linejoin="round"/>
</svg>
