<svg width="20" height="22" viewBox="0 0 20 22" fill="none" xmlns="http://www.w3.org/2000/svg">
<path id="Vector" d="M15.1704 16.3227C14.0658 16.3227 13.1704 17.2759 13.1704 18.4517C13.1704 19.6275 14.0658 20.5807 15.1704 20.5807C16.275 20.5807 17.1704 19.6275 17.1704 18.4517C17.1704 17.2759 16.275 16.3227 15.1704 16.3227ZM15.1704 16.3227H7.46436C7.00329 16.3227 6.77234 16.3227 6.58252 16.2353C6.41507 16.1583 6.26979 16.0343 6.16395 15.8761C6.04531 15.6989 5.9976 15.4618 5.90315 14.9926L3.44189 2.76567C3.34525 2.28556 3.29628 2.04577 3.17627 1.86645C3.07043 1.70829 2.92518 1.58381 2.75773 1.50678C2.56787 1.41943 2.3382 1.41943 1.87694 1.41943H1.17041M4.17041 4.61298H17.0436C17.7654 4.61298 18.1259 4.61298 18.3682 4.77304C18.5804 4.91324 18.7357 5.13313 18.8035 5.38902C18.8808 5.68115 18.7814 6.05004 18.5814 6.78828L17.1968 11.898C17.0772 12.3393 17.0173 12.5596 16.896 12.7234C16.7889 12.868 16.6476 12.9811 16.4875 13.0506C16.3065 13.1291 16.0915 13.1291 15.6625 13.1291H5.90088M6.17041 20.5807C5.06584 20.5807 4.17041 19.6275 4.17041 18.4517C4.17041 17.2759 5.06584 16.3227 6.17041 16.3227C7.27498 16.3227 8.17041 17.2759 8.17041 18.4517C8.17041 19.6275 7.27498 20.5807 6.17041 20.5807Z" stroke="white" stroke-width="1.5" stroke-linecap="round" stroke-linejoin="round"/>
</svg>
