<svg width="26" height="25" viewBox="0 0 26 25" fill="none" xmlns="http://www.w3.org/2000/svg">
<path fill-rule="evenodd" clip-rule="evenodd" d="M13 0C15.3281 0.0265672 17.4314 0.598759 19.3098 1.71658C21.1657 2.81208 22.7096 4.3654 23.7938 6.22802C24.9048 8.1177 25.4735 10.2337 25.5 12.576C25.434 15.7809 24.4232 18.5182 22.4675 20.7879C20.5118 23.0576 18.007 24.4617 15.414 25V16.0145H17.8655L18.4198 12.4834H14.7078V10.1707C14.6872 9.69123 14.8388 9.22022 15.1353 8.84283C15.4321 8.46441 15.9549 8.26551 16.7036 8.24614H18.9451V5.153C18.913 5.14265 18.6078 5.10173 18.0296 5.03024C17.3738 4.95351 16.7144 4.91253 16.0542 4.90747C14.5599 4.91437 13.3782 5.33587 12.5089 6.17198C11.6396 7.00785 11.1956 8.21717 11.1768 9.79996V12.4834H8.35191V16.0145H11.1768V25C7.993 24.4617 5.48821 23.0576 3.5325 20.7879C1.57679 18.5182 0.565991 15.7809 0.5 12.576C0.526402 10.2336 1.09513 8.11759 2.20619 6.22802C3.29037 4.36541 4.83427 2.81208 6.69024 1.71658C8.56855 0.598974 10.6718 0.0267824 13 0Z" fill="#EF4934"/>
</svg>
