<svg width="46.000000" height="46.000000" viewBox="0 0 46 46" fill="none" xmlns="http://www.w3.org/2000/svg" xmlns:xlink="http://www.w3.org/1999/xlink">
    <desc>
        Created with Pixso.
    </desc>
    <defs/>
    <path id="Union" d="M23 46C35.7026 46 46 35.7025 46 23C46 10.2975 35.7026 0 23 0C10.2974 0 0 10.2975 0 23C0 35.7025 10.2974 46 23 46ZM23 44.5C34.874 44.5 44.5 34.8741 44.5 23C44.5 11.1259 34.874 1.5 23 1.5C11.126 1.5 1.5 11.1259 1.5 23C1.5 34.8741 11.126 44.5 23 44.5ZM23 10L28.2236 20.105L34 15.4176L34 32L12 32L12 15.4176L17.7764 20.105L23 10ZM27.1689 20.9529L23 12.8972L18.8311 20.9529L23 24.3447L27.1689 20.9529ZM13.3311 28.6317L17.1484 21.2827L13.3311 18.197L13.3311 28.6317ZM32.6438 28.6317L32.6438 18.197L28.8264 21.2827L32.6438 28.6317ZM18.2031 22.1542L13.7329 30.7516L32.2671 30.7516L27.7969 22.1542L23 26.0406L18.2031 22.1542Z" clip-rule="evenodd" fill="#FFFFFF" fill-opacity="1.000000" fill-rule="evenodd"/>
</svg>
