<svg width="26" height="25" viewBox="0 0 26 25" fill="none" xmlns="http://www.w3.org/2000/svg">
<path fill-rule="evenodd" clip-rule="evenodd" d="M13 25C19.9036 25 25.5 19.4036 25.5 12.5C25.5 5.59644 19.9036 0 13 0C6.09644 0 0.5 5.59644 0.5 12.5C0.5 19.4036 6.09644 25 13 25ZM10.5033 12.5C10.5033 11.1286 11.6176 10.0036 12.9997 10.0036C14.371 10.0036 15.496 11.1286 15.496 12.5C15.496 13.8714 14.371 14.9964 12.9997 14.9964C11.6283 14.9964 10.5033 13.8714 10.5033 12.5ZM20.4458 9.40357C20.4993 10.4429 20.4993 11.4607 20.4993 12.5C20.4993 12.6301 20.4995 12.7599 20.4997 12.8897C20.5008 13.7967 20.502 14.6966 20.4458 15.5964C20.3922 16.7964 20.1136 17.8571 19.2351 18.7357C18.3673 19.6143 17.2959 19.8929 16.096 19.9464C15.0567 20 14.0389 20 12.9997 20C11.9604 20 10.9426 20 9.90338 19.9464C8.70343 19.8929 7.64276 19.6143 6.76423 18.7357C5.8857 17.8679 5.60714 16.7964 5.55357 15.5964C5.5 14.5571 5.5 13.5393 5.5 12.5C5.5 11.4607 5.5 10.4429 5.55357 9.40357C5.60714 8.20357 5.8857 7.14286 6.76423 6.26429C7.63205 5.38571 8.70343 5.10714 9.90338 5.05357C10.9426 5 11.9604 5 12.9997 5C14.0389 5 15.0567 5 16.096 5.05357C17.2959 5.10714 18.3566 5.38571 19.2351 6.26429C20.1136 7.13214 20.3922 8.20357 20.4458 9.40357ZM9.15341 12.5C9.15341 14.6321 10.8676 16.3464 12.9997 16.3464C15.1317 16.3464 16.8459 14.6321 16.8459 12.5C16.8459 10.3679 15.1317 8.65357 12.9997 8.65357C10.8676 8.65357 9.15341 10.3679 9.15341 12.5ZM16.1067 8.49286C16.1067 8.99643 16.5138 9.39286 17.0066 9.39286L17.0173 9.38214C17.1347 9.38485 17.2514 9.36343 17.3601 9.3192C17.4688 9.27496 17.5673 9.20887 17.6495 9.125C17.7333 9.04286 17.7994 8.94436 17.8436 8.83562C17.8879 8.72688 17.9093 8.61022 17.9066 8.49286C17.9066 7.98929 17.5102 7.59286 17.0066 7.59286C16.5031 7.59286 16.1067 7.98929 16.1067 8.49286Z" fill="#EF4934"/>
</svg>
