<svg width="26" height="25" viewBox="0 0 26 25" fill="none" xmlns="http://www.w3.org/2000/svg">
<path d="M13 0C6.0975 0 0.5 5.5975 0.5 12.5C0.5 19.4025 6.0975 25 13 25C19.9025 25 25.5 19.4025 25.5 12.5C25.5 5.5975 19.9025 0 13 0ZM9.36765 18.8965H6.32333V9.73759H9.36765V18.8965ZM7.84558 8.48694H7.82574C6.80417 8.48694 6.14346 7.7837 6.14346 6.90479C6.14346 6.00605 6.82439 5.32227 7.8658 5.32227C8.90721 5.32227 9.54808 6.00605 9.56792 6.90479C9.56792 7.7837 8.90721 8.48694 7.84558 8.48694ZM20.3448 18.8965H17.3009V13.9967C17.3009 12.7653 16.8601 11.9255 15.7586 11.9255C14.9176 11.9255 14.4168 12.492 14.1967 13.0388C14.1162 13.2345 14.0965 13.508 14.0965 13.7817V18.8965H11.0524C11.0524 18.8965 11.0923 10.5968 11.0524 9.73759H14.0965V11.0344C14.5011 10.4103 15.2249 9.52263 16.8401 9.52263C18.843 9.52263 20.3448 10.8316 20.3448 13.6448V18.8965Z" fill="#EF4934"/>
</svg>
