<svg width="24" height="24" viewBox="0 0 24 24" fill="none" xmlns="http://www.w3.org/2000/svg">
<path d="M17.1699 17.3227C16.0654 17.3227 15.1699 18.2759 15.1699 19.4517C15.1699 20.6275 16.0654 21.5807 17.1699 21.5807C18.2745 21.5807 19.1699 20.6275 19.1699 19.4517C19.1699 18.2759 18.2745 17.3227 17.1699 17.3227ZM17.1699 17.3227H9.46387C9.00281 17.3227 8.77185 17.3227 8.58203 17.2353C8.41458 17.1583 8.2693 17.0343 8.16346 16.8761C8.04482 16.6989 7.99711 16.4618 7.90267 15.9926L5.44141 3.76567C5.34476 3.28556 5.29579 3.04577 5.17578 2.86645C5.06994 2.70829 4.92469 2.58381 4.75724 2.50678C4.56738 2.41943 4.33771 2.41943 3.87646 2.41943H3.16992M6.16992 5.61298H19.0431C19.7649 5.61298 20.1255 5.61298 20.3677 5.77304C20.5799 5.91324 20.7352 6.13313 20.803 6.38902C20.8803 6.68115 20.781 7.05004 20.5809 7.78828L19.1963 12.898C19.0767 13.3393 19.0169 13.5596 18.8955 13.7234C18.7884 13.868 18.6471 13.9811 18.487 14.0506C18.306 14.1291 18.091 14.1291 17.662 14.1291H7.90039M8.16992 21.5807C7.06535 21.5807 6.16992 20.6275 6.16992 19.4517C6.16992 18.2759 7.06535 17.3227 8.16992 17.3227C9.27449 17.3227 10.1699 18.2759 10.1699 19.4517C10.1699 20.6275 9.27449 21.5807 8.16992 21.5807Z" stroke="white" stroke-width="1.5" stroke-linecap="round" stroke-linejoin="round"/>
</svg>
