<svg xmlns="http://www.w3.org/2000/svg">
    <defs>
        <symbol id="facebook" width="34.000000" height="34.000000" viewBox="0 0 34 34" fill="none" xmlns="http://www.w3.org/2000/svg" xmlns:xlink="http://www.w3.org/1999/xlink">
            <path id="Vector" d="M16.44 -0.47C19.59 -0.44 22.44 0.34 24.99 1.85C27.51 3.34 29.6 5.44 31.07 7.97C32.57 10.53 33.34 13.39 33.38 16.57C33.29 20.91 31.92 24.62 29.27 27.7C26.62 30.77 23.22 32.67 19.71 33.4L19.71 21.23L23.03 21.23L23.78 16.44L18.75 16.44L18.75 13.31C18.73 12.66 18.93 12.02 19.33 11.51C19.74 11 20.44 10.73 21.46 10.7L24.5 10.7L24.5 6.51C24.45 6.49 24.04 6.44 23.26 6.34C22.37 6.24 21.47 6.18 20.58 6.18C18.55 6.18 16.95 6.76 15.77 7.89C14.6 9.02 13.99 10.66 13.97 12.81L13.97 16.44L10.14 16.44L10.14 21.23L13.97 21.23L13.97 33.4C9.65 32.67 6.26 30.77 3.61 27.7C0.96 24.62 -0.41 20.91 -0.5 16.57C-0.46 13.39 0.31 10.53 1.81 7.97C3.28 5.44 5.37 3.34 7.89 1.85C10.43 0.34 13.28 -0.44 16.44 -0.47Z" fill="#EF4934" fill-opacity="1.000000" fill-rule="evenodd"/>
        </symbol>
        <symbol id="linkedin" width="35.000000" height="35.000000" viewBox="0 0 35 35" fill="none" xmlns="http://www.w3.org/2000/svg" xmlns:xlink="http://www.w3.org/1999/xlink">
            <path id="Vector" d="M17.5 0C7.83 0 0 7.83 0 17.5C0 27.16 7.83 35 17.5 35C27.16 35 35 27.16 35 17.5C35 7.83 27.16 0 17.5 0ZM12.41 26.45L8.15 26.45L8.15 13.63L12.41 13.63L12.41 26.45ZM10.28 11.88L10.25 11.88C8.82 11.88 7.9 10.89 7.9 9.66C7.9 8.4 8.85 7.45 10.31 7.45C11.77 7.45 12.66 8.4 12.69 9.66C12.69 10.89 11.77 11.88 10.28 11.88ZM27.78 26.45L23.52 26.45L23.52 19.59C23.52 17.87 22.9 16.69 21.36 16.69C20.18 16.69 19.48 17.48 19.17 18.25C19.06 18.52 19.03 18.91 19.03 19.29L19.03 26.45L14.77 26.45C14.77 26.45 14.82 14.83 14.77 13.63L19.03 13.63L19.03 15.44C19.6 14.57 20.61 13.33 22.87 13.33C25.68 13.33 27.78 15.16 27.78 19.1L27.78 26.45Z" fill="#EF4934" fill-opacity="1.000000" fill-rule="nonzero"/>
        </symbol>
        <symbol id="instagram" width="35.000000" height="35.000000" viewBox="0 0 35 35" fill="none" xmlns="http://www.w3.org/2000/svg" xmlns:xlink="http://www.w3.org/1999/xlink">
            <path id="Subtract" d="M17.5 35C27.16 35 35 27.16 35 17.5C35 7.83 27.16 0 17.5 0C7.83 0 0 7.83 0 17.5C0 27.16 7.83 35 17.5 35ZM14 17.5C14 15.58 15.56 14 17.49 14C19.41 14 20.99 15.58 20.99 17.5C20.99 19.42 19.41 20.99 17.49 20.99C15.57 20.99 14 19.42 14 17.5ZM27.92 13.16C27.99 14.62 27.99 16.04 27.99 17.5C27.99 17.68 27.99 17.86 27.99 18.04C28 19.31 28 20.57 27.92 21.83C27.84 23.51 27.45 25 26.22 26.23C25.01 27.46 23.51 27.85 21.83 27.92C20.37 28 18.95 28 17.49 28C16.04 28 14.61 28 13.16 27.92C11.48 27.85 9.99 27.46 8.77 26.23C7.54 25.01 7.14 23.51 7.07 21.83C7 20.37 7 18.95 7 17.5C7 16.04 7 14.62 7.07 13.16C7.14 11.48 7.54 10 8.77 8.77C9.98 7.54 11.48 7.15 13.16 7.07C14.61 7 16.04 7 17.49 7C18.95 7 20.37 7 21.83 7.07C23.51 7.15 24.99 7.54 26.22 8.77C27.45 9.98 27.84 11.48 27.92 13.16ZM12.11 17.5C12.11 20.48 14.51 22.88 17.49 22.88C20.48 22.88 22.88 20.48 22.88 17.5C22.88 14.51 20.48 12.11 17.49 12.11C14.51 12.11 12.11 14.51 12.11 17.5ZM21.84 11.89C21.84 12.59 22.41 13.15 23.1 13.15L23.12 13.13C23.28 13.13 23.45 13.1 23.6 13.04C23.75 12.98 23.89 12.89 24 12.77C24.12 12.66 24.21 12.52 24.28 12.36C24.34 12.21 24.37 12.05 24.36 11.89C24.36 11.18 23.81 10.63 23.1 10.63C22.4 10.63 21.84 11.18 21.84 11.89Z" fill="#EF4934" fill-opacity="1.000000" fill-rule="evenodd"/>
        </symbol>
    </defs>
</svg>
